<svg width="60" height="60" viewBox="0 0 60 60" fill="none" xmlns="http://www.w3.org/2000/svg">
<path d="M30 60C25.9 60 22.025 59.212 18.375 57.636C14.725 56.06 11.537 53.91 8.811 51.186C6.087 48.462 3.937 45.275 2.361 41.625C0.785003 37.975 -0.0019962 34.1 3.80228e-06 30C3.80228e-06 25.85 0.788004 21.962 2.364 18.336C3.94 14.71 6.09 11.536 8.814 8.814C11.538 6.088 14.724 3.938 18.372 2.364C22.02 0.79 25.896 0.002 30 0C34.15 0 38.038 0.788 41.664 2.364C45.29 3.94 48.464 6.09 51.186 8.814C53.912 11.538 56.062 14.713 57.636 18.339C59.21 21.965 59.998 25.852 60 30V34.35C60 37.3 58.988 39.813 56.964 41.889C54.94 43.965 52.452 45.002 49.5 45C47.7 45 46.025 44.6 44.475 43.8C42.925 43 41.65 41.95 40.65 40.65C39.3 42 37.712 43.063 35.886 43.839C34.06 44.615 32.098 45.002 30 45C25.85 45 22.312 43.537 19.386 40.611C16.46 37.685 14.998 34.148 15 30C15 25.85 16.463 22.312 19.389 19.386C22.315 16.46 25.852 14.998 30 15C34.15 15 37.688 16.463 40.614 19.389C43.54 22.315 45.002 25.852 45 30V34.35C45 35.8 45.45 36.937 46.35 37.761C47.25 38.585 48.3 38.998 49.5 39C50.7 39 51.75 38.587 52.65 37.761C53.55 36.935 54 35.798 54 34.35V30C54 23.45 51.637 17.812 46.911 13.086C42.185 8.36 36.548 5.998 30 6C23.45 6 17.812 8.363 13.086 13.089C8.36 17.815 5.998 23.452 6 30C6 36.55 8.363 42.188 13.089 46.914C17.815 51.64 23.452 54.002 30 54H45V60H30ZM30 39C32.5 39 34.625 38.125 36.375 36.375C38.125 34.625 39 32.5 39 30C39 27.5 38.125 25.375 36.375 23.625C34.625 21.875 32.5 21 30 21C27.5 21 25.375 21.875 23.625 23.625C21.875 25.375 21 27.5 21 30C21 32.5 21.875 34.625 23.625 36.375C25.375 38.125 27.5 39 30 39Z" fill="#BA3958"/>
</svg>
