<svg width="72" height="72" viewBox="0 0 72 72" fill="none" xmlns="http://www.w3.org/2000/svg">
<path d="M8 72C5.80001 72 3.91601 71.216 2.34801 69.648C0.780006 68.08 -0.00265987 66.1973 6.79117e-06 64V8C6.79117e-06 5.80001 0.784007 3.91601 2.35201 2.34801C3.92001 0.780006 5.80267 -0.00265987 8 6.79117e-06H64C66.2 6.79117e-06 68.084 0.784007 69.652 2.35201C71.22 3.92001 72.0027 5.80267 72 8V64C72 66.2 71.216 68.084 69.648 69.652C68.08 71.22 66.1973 72.0027 64 72H8ZM12 56H60L45 36L33 52L24 40L12 56Z" fill="#BA3958"/>
</svg>
