<svg width="475" height="334" viewBox="0 0 475 334" fill="none" xmlns="http://www.w3.org/2000/svg">
<g opacity="0.6" filter="url(#filter0_f_5_77)">
<path d="M245.934 307.5C-37.0669 307.5 -54.067 27 243.934 27C350.434 27 427.934 103.367 378.934 103.367C329.934 103.367 286.434 155 378.934 155C471.434 155 509.434 307.5 245.934 307.5Z" stroke="#D54063" stroke-width="3"/>
<path d="M359.868 215.814C361.165 220.202 359.581 225.219 355.511 229.857C351.456 234.478 345.07 238.533 337.29 240.832C329.51 243.132 321.945 243.2 316.029 241.526C310.092 239.846 306.035 236.496 304.738 232.108C303.441 227.72 305.025 222.703 309.095 218.065C313.15 213.444 319.537 209.389 327.317 207.09C335.097 204.79 342.661 204.722 348.577 206.396C354.514 208.076 358.571 211.426 359.868 215.814Z" stroke="#D44063" stroke-width="3"/>
<path d="M116.954 223.579C116.954 232.139 108.447 239.079 97.9539 239.079C87.4605 239.079 78.9538 232.139 78.9538 223.579C78.9538 215.018 87.4605 208.079 97.9539 208.079C108.447 208.079 116.954 215.018 116.954 223.579Z" fill="#BA3958"/>
<ellipse cx="59.9538" cy="167.579" rx="19" ry="15.5" fill="#935179"/>
<ellipse cx="97.9539" cy="106.579" rx="19" ry="15.5" fill="#E17866"/>
<ellipse cx="167.954" cy="75.5788" rx="19" ry="15.5" fill="#D6B96F"/>
</g>
<path d="M225.933 304.5C-57.0668 304.5 -74.0668 24 223.933 24C330.433 24 407.933 100.367 358.933 100.367C309.933 100.367 266.433 152 358.933 152C451.433 152 489.433 304.5 225.933 304.5Z" stroke="#F14770" stroke-width="3"/>
<path d="M353.914 211.735C355.211 216.123 353.626 221.141 349.556 225.778C345.501 230.399 339.115 234.454 331.335 236.754C323.555 239.053 315.99 239.121 310.075 237.447C304.138 235.767 300.08 232.417 298.783 228.029C297.486 223.641 299.071 218.624 303.141 213.986C307.196 209.365 313.582 205.31 321.362 203.011C329.142 200.711 336.707 200.643 342.622 202.317C348.559 203.997 352.617 207.347 353.914 211.735Z" stroke="#EF486F" stroke-width="3"/>
<path d="M124 222.5C124 232.717 112.583 241 98.5 241C84.4167 241 73 232.717 73 222.5C73 212.283 84.4167 204 98.5 204C112.583 204 124 212.283 124 222.5Z" fill="#BA3958"/>
<ellipse cx="60.5" cy="166.5" rx="25.5" ry="18.5" fill="#935179"/>
<ellipse cx="98.5" cy="105.5" rx="25.5" ry="18.5" fill="#E17866"/>
<ellipse cx="168.5" cy="74.5" rx="25.5" ry="18.5" fill="#D6B96F"/>
<defs>
<filter id="filter0_f_5_77" x="0.499966" y="0.5" width="474.401" height="333.5" filterUnits="userSpaceOnUse" color-interpolation-filters="sRGB">
<feFlood flood-opacity="0" result="BackgroundImageFix"/>
<feBlend mode="normal" in="SourceGraphic" in2="BackgroundImageFix" result="shape"/>
<feGaussianBlur stdDeviation="12.5" result="effect1_foregroundBlur_5_77"/>
</filter>
</defs>
</svg>
