<svg width="22" height="22" viewBox="0 0 22 22" fill="none" xmlns="http://www.w3.org/2000/svg">
<path d="M2.125 21.6558L9.125 14.6458C9.75 15.1465 10.4688 15.5429 11.2812 15.835C12.0938 16.1271 12.9583 16.2731 13.875 16.2731C16.1458 16.2731 18.0675 15.4853 19.64 13.9098C21.2125 12.3342 21.9992 10.4098 22 8.13656C22 5.86249 21.2133 3.93809 19.64 2.36336C18.0667 0.78862 16.145 0.000834519 13.875 0C11.6042 0 9.6825 0.787786 8.11 2.36336C6.5375 3.93893 5.75083 5.86333 5.75 8.13656C5.75 9.05453 5.89583 9.92034 6.1875 10.734C6.47917 11.5477 6.875 12.2674 7.375 12.8933L0.34375 19.9346C0.114582 20.1641 0 20.4457 0 20.7795C0 21.1133 0.125 21.4054 0.375 21.6558C0.604168 21.8853 0.895834 22 1.25 22C1.60417 22 1.89583 21.8853 2.125 21.6558ZM13.875 13.7696C12.3125 13.7696 10.9842 13.2217 9.89 12.126C8.79583 11.0303 8.24917 9.70045 8.25 8.13656C8.25 6.57184 8.79708 5.24161 9.89125 4.14589C10.9854 3.05017 12.3133 2.50272 13.875 2.50356C15.4375 2.50356 16.7658 3.05142 17.86 4.14714C18.9542 5.24286 19.5008 6.57267 19.5 8.13656C19.5 9.70128 18.9529 11.0315 17.8587 12.1272C16.7646 13.2229 15.4367 13.7704 13.875 13.7696Z" fill="#BA3958"/>
</svg>
