<svg width="60" height="60" viewBox="0 0 60 60" fill="none" xmlns="http://www.w3.org/2000/svg">
<path d="M60 13.65C59.9663 12.3557 59.8662 11.064 59.7 9.78C59.476 8.65537 59.1027 7.56573 58.59 6.54C58.0538 5.42731 57.3337 4.41308 56.46 3.54C55.5783 2.67661 54.5658 1.95777 53.46 1.41C52.4329 0.907333 51.3433 0.54412 50.22 0.33C48.9482 0.139498 47.6657 0.0292803 46.38 0H13.65C12.3557 0.0337092 11.064 0.133841 9.78 0.3C8.65537 0.524005 7.56573 0.89731 6.54 1.41C5.42731 1.94621 4.41308 2.66632 3.54 3.54C2.67661 4.42173 1.95777 5.43418 1.41 6.54C0.907333 7.56709 0.54412 8.65673 0.33 9.78C0.139498 11.0518 0.0292803 12.3343 0 13.62V46.35C0.0337092 47.6443 0.133841 48.936 0.3 50.22C0.524005 51.3446 0.89731 52.4343 1.41 53.46C1.94621 54.5727 2.66632 55.5869 3.54 56.46C4.42173 57.3234 5.43418 58.0422 6.54 58.59C7.56709 59.0927 8.65673 59.4559 9.78 59.67C11.0518 59.8605 12.3343 59.9707 13.62 60H46.35C47.6443 59.9663 48.936 59.8662 50.22 59.7C51.3446 59.476 52.4343 59.1027 53.46 58.59C54.5727 58.0538 55.5869 57.3337 56.46 56.46C57.3234 55.5783 58.0422 54.5658 58.59 53.46C59.0927 52.4329 59.4559 51.3433 59.67 50.22C59.8605 48.9482 59.9707 47.6657 60 46.38V13.65ZM30.69 51C27.0872 50.9822 23.5474 50.0534 20.4 48.3L9 51.3L12 40.14C10.0653 36.8894 9.02996 33.1827 9 29.4C9.01195 25.1488 10.2816 20.9961 12.6491 17.4651C15.0166 13.9341 18.376 11.1826 22.3042 9.55715C26.2324 7.9317 30.5538 7.50501 34.7241 8.33082C38.8943 9.15662 42.727 11.198 45.7393 14.1978C48.7516 17.1976 50.8089 21.0218 51.652 25.1886C52.4952 29.3554 52.0865 33.6785 50.4774 37.6134C48.8683 41.5484 46.1308 44.9192 42.6096 47.3013C39.0885 49.6835 34.9411 50.9704 30.69 51ZM30.69 11.61C27.5094 11.6464 24.3953 12.525 21.6647 14.1562C18.934 15.7875 16.6844 18.1132 15.1449 20.8966C13.6053 23.6799 12.8308 26.8216 12.9003 30.0016C12.9697 33.1816 13.8805 36.2864 15.54 39L15.96 39.69L14.16 46.26L21 44.4L21.66 44.79C24.3887 46.3973 27.4932 47.2562 30.66 47.28C35.4339 47.28 40.0123 45.3836 43.3879 42.0079C46.7636 38.6323 48.66 34.0539 48.66 29.28C48.66 24.5061 46.7636 19.9277 43.3879 16.5521C40.0123 13.1764 35.4339 11.28 30.66 11.28L30.69 11.61ZM41.19 37.17C40.7971 37.8254 40.2709 38.391 39.6456 38.8303C39.0204 39.2695 38.3098 39.5726 37.56 39.72C36.4396 39.9248 35.2862 39.8527 34.2 39.51C33.178 39.1905 32.1762 38.8098 31.2 38.37C27.4912 36.509 24.3283 33.7182 22.02 30.27C20.7657 28.6724 20.0046 26.7437 19.83 24.72C19.8121 23.8794 19.9712 23.0444 20.2968 22.2691C20.6223 21.4939 21.1072 20.7958 21.72 20.22C21.9005 20.0154 22.1219 19.8509 22.37 19.7372C22.618 19.6235 22.8872 19.5631 23.16 19.56H24C24.33 19.56 24.78 19.56 25.2 20.49C25.62 21.42 26.73 24.21 26.88 24.48C26.9537 24.6239 26.9922 24.7833 26.9922 24.945C26.9922 25.1067 26.9537 25.2661 26.88 25.41C26.7474 25.736 26.5652 26.0396 26.34 26.31C26.07 26.64 25.77 27.03 25.53 27.27C25.29 27.51 24.99 27.81 25.29 28.35C26.1063 29.7276 27.1166 30.9804 28.29 32.07C29.5678 33.1991 31.0287 34.102 32.61 34.74C33.15 35.01 33.48 34.98 33.78 34.74C34.08 34.5 35.13 33.18 35.49 32.64C35.85 32.1 36.21 32.19 36.69 32.37C37.17 32.55 39.84 33.84 40.38 34.11C40.92 34.38 41.25 34.5 41.4 34.74C41.5301 35.5252 41.4578 36.3305 41.19 37.08V37.17Z" fill="#BA3958"/>
</svg>
